# xmcd CD database file
#
# Track frame offsets:
#	150
#	20470
#	43133
#	68706
#	98298
#	116995
#	135557
#	157156
#	182469
#	225409
#
# Disc length: 3021 seconds
#
# Revision: 0
# Processed by: cddbd v1.5.2PL0 Copyright (c) Steve Scherf et al.
# Submitted via: CDex 1.70beta2
#
DISCID=7a0bcb0a
DTITLE=Jenny Robson - Jenny Robson
DYEAR=2003
DGENRE=Jazz
TTITLE0=Changes
TTITLE1=Earthworm
TTITLE2=Graceful Child
TTITLE3=In A Quiet Way
TTITLE4=I Hate Growing Up
TTITLE5=Running Away
TTITLE6=Flying
TTITLE7=Who's The Fool Now?
TTITLE8=The End
TTITLE9=?
EXTD=YEAR: 2003
EXTT0=
EXTT1=
EXTT2=
EXTT3=
EXTT4=
EXTT5=
EXTT6=
EXTT7=
EXTT8=
EXTT9=
PLAYORDER=
